#!OML:ASF Y:\EmotionMaleHayes\Project 1\Capture day 1\Session 1\Male1.ASF
:FULLY-SPECIFIED
:DEGREES
511
root 4.70902 15.5995 12.0169 -166.235 12.8305 -162.549
lowerback 15.5763 4.5338 7.69442
upperback 7.33853 8.25267 0.927229
thorax 0.0591599 4.78457 -4.50125
lowerneck -24.137 1.09487 6.0778
upperneck 26.386 -0.548259 -2.85849
head 12.8106 -0.217001 -2.27132
rclavicle -1.59028e-015 4.69132e-014
rhumerus 2.71161 14.9268 -57.8753
rradius 71.9787
rwrist -19.4593
rhand -28.3625 -35.2967
rfingers 7.12502
rthumb -1.73605 -65.2693
lclavicle -1.59028e-015 4.69132e-014
lhumerus -57.6499 -17.8369 75.1742
lradius 27.6707
lwrist -1.90469
lhand -21.9112 -17.9392
lfingers 7.12502
lthumb 4.49455 11.9931
rfemur 16.5619 -7.74473 28.1036
rtibia 13.4905
rfoot -26.9241 -12.6981
rtoes -36.2051
lfemur -48.0863 13.5495 -13.8747
ltibia 55.3427
lfoot -23.0895 6.01273
ltoes -0.683609
512
root 4.77718 15.6372 11.8106 -166.22 12.8196 -163.378
lowerback 15.432 4.48555 6.86468
upperback 7.5106 8.05368 0.56111
thorax 0.230153 4.68478 -4.37876
lowerneck -24.6965 1.16743 5.87058
upperneck 26.5759 -0.47493 -2.58916
head 13.0059 -0.16055 -2.12643
rclavicle -7.95139e-016 -5.32743e-014
rhumerus 2.38364 16.3274 -58.0016
rradius 74.4013
rwrist -19.1996
rhand -28.0124 -33.9347
rfingers 7.12502
rthumb -1.39786 -63.9099
lclavicle -7.95139e-016 -5.32743e-014
lhumerus -57.2346 -17.3111 74.9932
lradius 26.3435
lwrist -2.37061
lhand -22.1423 -18.0922
lfingers 7.12502
lthumb 4.27139 11.8447
rfemur 15.9632 -7.93713 26.9937
rtibia 15.5695
rfoot -25.3933 -12.2536
rtoes -35.801
lfemur -46.9523 13.7211 -14.77
ltibia 54.308
lfoot -22.7987 6.68396
ltoes 0.787701
513
root 4.84461 15.6836 11.5999 -166.431 12.7402 -164.283
lowerback 15.4411 4.36281 6.0143
upperback 7.70711 7.78438 0.19397
thorax 0.338652 4.55211 -4.25317
lowerneck -25.004 1.26112 5.96679
upperneck 26.6193 -0.41322 -2.51599
head 13.0895 -0.108221 -2.1051
rclavicle 8.15017e-014 -6.59965e-014
rhumerus 1.69786 17.9029 -58.5106
rradius 76.7208
rwrist -18.8881
rhand -27.7837 -32.5407
rfingers 7.12502
rthumb -1.17698 -62.5172
lclavicle 8.15017e-014 -6.59965e-014
lhumerus -56.6216 -16.6658 74.7576
lradius 24.982
lwrist -3.07358
lhand -22.1656 -18.437
lfingers 7.12502
lthumb 4.2489 11.5004
rfemur 15.4222 -7.85159 26.0023
rtibia 17.8177
rfoot -23.7276 -11.9777
rtoes -34.166
lfemur -45.6938 13.4905 -15.6259
ltibia 53.6182
lfoot -22.8839 6.8869
ltoes 2.33689
514
root 4.90819 15.7408 11.384 -166.649 12.5965 -165.234
lowerback 15.491 4.2011 5.11232
upperback 7.79165 7.44705 -0.0958795
thorax 0.286277 4.36569 -4.02271
lowerneck -25.0164 1.38116 6.07024
upperneck 26.6741 -0.281608 -2.5472
head 13.122 -0.0452378 -2.11253
rclavicle -2.94201e-014 1.43125e-014
rhumerus 0.677774 19.7767 -59.3856
rradius 78.8412
rwrist -18.7597
rhand -27.9426 -31.7556
rfingers 7.12502
rthumb -1.33046 -61.7312
lclavicle -2.94201e-014 1.43125e-014
lhumerus -55.9084 -15.6642 74.5105
lradius 23.5166
lwrist -4.28875
lhand -22.1282 -18.9364
lfingers 7.12502
lthumb 4.28494 11.0002
rfemur 14.6561 -7.35757 25.2035
rtibia 20.2356
rfoot -21.7367 -12.0894
rtoes -31.3315
lfemur -44.3488 12.7624 -16.3881
ltibia 53.0216
lfoot -23.4238 6.82824
ltoes 3.5632
515
root 4.96294 15.8037 11.1651 -166.826 12.278 -166.064
lowerback 15.5822 4.006 4.41176
upperback 7.78498 7.08679 -0.266458
thorax 0.129693 4.16163 -3.78333
lowerneck -25.1001 1.43881 6.03326
upperneck 26.9854 -0.200113 -2.61292
head 13.2717 -0.0265253 -2.12666
rclavicle 7.95139e-015 1.59028e-014
rhumerus -0.714552 21.7376 -60.4531
rradius 80.7146
rwrist -18.8715
rhand -27.9597 -31.3169
rfingers 7.12502
rthumb -1.34699 -61.2924
lclavicle 7.95139e-015 1.59028e-014
lhumerus -54.9137 -14.1839 74.098
lradius 21.9815
lwrist -6.05025
lhand -22.0942 -19.243
lfingers 7.12502
lthumb 4.31783 10.6929
rfemur 13.4787 -7.08679 24.4804
rtibia 23.1492
rfoot -19.2452 -12.365
rtoes -27.7689
lfemur -42.9359 11.8435 -17.0103
ltibia 52.3323
lfoot -24.123 6.88007
ltoes 4.15083
516
root 5.01381 15.8665 10.9409 -167.104 11.7467 -166.839
lowerback 15.7087 3.72761 3.86692
upperback 7.77837 6.64354 -0.388487
thorax -0.0336398 3.92243 -3.56747
lowerneck -25.2253 1.52586 6.0189
upperneck 27.4409 -0.101478 -2.68542
head 13.4926 -0.00134829 -2.14881
rclavicle -4.05521e-014 -1.03368e-014
rhumerus -2.4467 23.6715 -61.7533
rradius 82.2195
rwrist -18.9169
rhand -27.4117 -30.5812
rfingers 7.12502
rthumb -0.817683 -60.5594
lclavicle -4.05521e-014 -1.03368e-014
lhumerus -53.6477 -12.1416 73.2718
lradius 20.4294
lwrist -8.36464
lhand -21.9498 -19.6403
lfingers 7.12502
lthumb 4.4572 10.2928
rfemur 12.0573 -7.65171 23.4135
rtibia 26.5838
rfoot -15.8829 -12.2938
rtoes -24.3967
lfemur -41.2192 10.9334 -17.6105
ltibia 51.257
lfoot -24.6136 6.86571
ltoes 3.64562
